<svg xmlns="http://www.w3.org/2000/svg" width="193.767" height="174.246" fill="none" viewBox="0 0 193.767 174.246"><path fill="#000" d="M56.86 28.234a50.7 50.7 0 0 1 17.569-4.413 50.7 50.7 0 0 1 23.695 4.13 51 51 0 0 1 5.405 2.758c16.793 8.662 24.174-11.181 9.413-18.96C79.001-7.343 42.982-2.967 16.599 23.417-4.04 44.055-5.543 69.069 12.709 87.32c18.253 18.253 40.703 18.695 57.807 1.591C94.999 64.43 77.63 35.393 56.86 28.234m72.876 72.876a50.73 50.73 0 0 1 29.665-3.771 50.7 50.7 0 0 1 17.004 6.246c16.617 8.574 24.307-11.049 9.413-18.96-33.985-19.047-69.959-14.716-96.387 11.712-20.595 20.594-22.053 45.653-3.845 63.861s40.703 18.694 57.806 1.591c24.395-24.396 7.292-53.431-13.656-60.679"/></svg>