<svg xmlns="http://www.w3.org/2000/svg" width="20" height="20" fill="none" viewBox="0 0 20 20"><defs><clipPath id="a"><path fill="#fff" d="M0 0h20v20H0z"/></clipPath></defs><g clip-path="url(#a)"><path fill="#000" d="M10 2.5c-4.125 0-7.5 3.375-7.5 7.5s3.375 7.5 7.5 7.5 7.5-3.375 7.5-7.5-3.375-7.5-7.5-7.5m3.125 9.75c.25.25.25.625 0 .875a.604.604 0 0 1-.875 0L10 10.875l-2.25 2.25a.604.604 0 0 1-.875 0 .604.604 0 0 1 0-.875L9.125 10l-2.25-2.25a.604.604 0 0 1 0-.875c.25-.25.625-.25.875 0L10 9.125l2.25-2.25c.25-.25.625-.25.875 0s.25.625 0 .875L10.875 10z"/></g></svg>